<svg width="33" height="33" viewBox="0 0 33 33" fill="none" xmlns="http://www.w3.org/2000/svg">
<rect x="0.788086" y="0.976318" width="31.648" height="31.648" rx="15.824" fill="#147C84"/>
<path d="M21.9384 15.008C21.9384 16.096 21.6157 17.094 21.0605 17.9268C20.2501 19.1274 18.967 19.9753 17.4738 20.1929C17.2187 20.2379 16.9561 20.2604 16.686 20.2604C16.4159 20.2604 16.1532 20.2379 15.8981 20.1929C14.4049 19.9753 13.1219 19.1274 12.3115 17.9268C11.7562 17.094 11.4336 16.096 11.4336 15.008C11.4336 12.1042 13.7822 9.75562 16.686 9.75562C19.5898 9.75562 21.9384 12.1042 21.9384 15.008Z" stroke="white" stroke-width="0.900409" stroke-linecap="round" stroke-linejoin="round"/>
<path d="M23.6265 22.1137L22.3884 22.4064C22.1108 22.4739 21.8932 22.684 21.8332 22.9616L21.5706 24.0646C21.428 24.6649 20.6627 24.845 20.265 24.3723L16.6858 20.2604L13.1067 24.3798C12.709 24.8525 11.9437 24.6724 11.8011 24.0721L11.5385 22.9691C11.471 22.6915 11.2534 22.4739 10.9833 22.4139L9.74519 22.1212C9.17494 21.9862 8.97234 21.2733 9.38503 20.8607L12.3114 17.9343C13.1217 19.1349 14.4048 19.9828 15.898 20.2004C16.1531 20.2454 16.4157 20.2679 16.6858 20.2679C16.956 20.2679 17.2186 20.2454 17.4737 20.2004C18.9669 19.9828 20.25 19.1349 21.0603 17.9343L23.9867 20.8607C24.3994 21.2658 24.1968 21.9787 23.6265 22.1137Z" stroke="white" stroke-width="0.900409" stroke-linecap="round" stroke-linejoin="round"/>
<path d="M17.1214 12.742L17.5641 13.6274C17.6241 13.7475 17.7817 13.8675 17.9242 13.89L18.7271 14.0251C19.2373 14.1076 19.3574 14.4828 18.9897 14.8505L18.3669 15.4732C18.2619 15.5783 18.2019 15.7809 18.2394 15.9309L18.4195 16.7038C18.562 17.3116 18.2394 17.5517 17.6991 17.229L16.9488 16.7863C16.8137 16.7038 16.5886 16.7038 16.4536 16.7863L15.7032 17.229C15.163 17.5442 14.8403 17.3116 14.9829 16.7038L15.163 15.9309C15.193 15.7884 15.1405 15.5783 15.0354 15.4732L14.4126 14.8505C14.045 14.4828 14.165 14.1151 14.6753 14.0251L15.4781 13.89C15.6132 13.8675 15.7708 13.7475 15.8308 13.6274L16.2735 12.742C16.4911 12.2618 16.8813 12.2618 17.1214 12.742Z" stroke="white" stroke-width="0.900409" stroke-linecap="round" stroke-linejoin="round"/>
</svg>
