<svg width="23" height="24" viewBox="0 0 23 24" fill="none" xmlns="http://www.w3.org/2000/svg">
<g clip-path="url(#clip0_1670_1576)">
<rect x="0.329102" y="0.722229" width="22.4286" height="22.4286" rx="11.2143" fill="#147C84"/>
<path d="M9.85044 14.3807L15.9253 8.30648C15.9925 8.23931 16.0716 8.20342 16.1627 8.19882C16.2538 8.19422 16.3373 8.23011 16.4133 8.30648C16.4892 8.38286 16.5274 8.46499 16.5278 8.55287C16.5283 8.64076 16.4903 8.72266 16.4139 8.79857L10.2411 14.9756C10.1293 15.0874 9.99906 15.1433 9.85044 15.1433C9.70182 15.1433 9.57161 15.0874 9.45981 14.9756L6.66462 12.1804C6.59745 12.1132 6.56248 12.0334 6.55972 11.9409C6.55696 11.8484 6.5933 11.7642 6.66876 11.6883C6.74422 11.6124 6.82635 11.5744 6.91515 11.5744C7.00396 11.5744 7.08609 11.6124 7.16154 11.6883L9.85044 14.3807Z" fill="white"/>
</g>
<defs>
<clipPath id="clip0_1670_1576">
<rect x="0.329102" y="0.722229" width="22.4286" height="22.4286" rx="11.2143" fill="white"/>
</clipPath>
</defs>
</svg>
