<svg width="32" height="32" viewBox="0 0 32 32" fill="none" xmlns="http://www.w3.org/2000/svg">
<rect x="0.886703" y="0.950363" width="30.5278" height="30.5278" rx="15.2639" stroke="#CDD5E0" stroke-width="0.623016"/>
<path d="M13.0352 19.6228L15.4939 21.3817C15.8112 21.6748 16.525 21.8214 17.0009 21.8214H20.0149C20.9667 21.8214 21.9978 21.1618 22.2357 20.2824L24.1393 14.9323C24.5359 13.9063 23.822 13.0268 22.6323 13.0268H19.4597C18.9838 13.0268 18.5872 12.6604 18.6665 12.1474L19.0631 9.80216C19.2217 9.14256 18.7459 8.40968 18.032 8.18982C17.3975 7.96995 16.6043 8.26311 16.2871 8.70284L13.0352 13.1734" stroke="#147C84" stroke-width="1.86905" stroke-miterlimit="10"/>
<path d="M9.29785 20.2548V12.1739C9.29785 11.0195 9.74642 10.6072 10.7931 10.6072H11.5407C12.5874 10.6072 13.0359 11.0195 13.0359 12.1739V20.2548C13.0359 21.4092 12.5874 21.8215 11.5407 21.8215H10.7931C9.74642 21.8215 9.29785 21.4092 9.29785 20.2548Z" stroke="#147C84" stroke-width="1.86905" stroke-linecap="round" stroke-linejoin="round"/>
</svg>
