<svg width="68" height="14" viewBox="0 0 68 14" fill="none" xmlns="http://www.w3.org/2000/svg">
<path d="M7.8817 1.57827L8.97809 3.78917C9.12759 4.09694 9.52628 4.39214 9.86267 4.44867L11.8499 4.78156C13.1207 4.99511 13.4197 5.92469 12.504 6.84171L10.9591 8.39938C10.6974 8.66318 10.5541 9.17194 10.6351 9.53624L11.0774 11.4645C11.4263 12.9908 10.6227 13.5812 9.28333 12.7835L7.42072 11.6718C7.08433 11.4708 6.5299 11.4708 6.18728 11.6718L4.32467 12.7835C2.99156 13.5812 2.18173 12.9845 2.53058 11.4645L2.97288 9.53624C3.05386 9.17194 2.91058 8.66318 2.64894 8.39938L1.10404 6.84171C0.194533 5.92469 0.487318 4.99511 1.75813 4.78156L3.74533 4.44867C4.07549 4.39214 4.47418 4.09694 4.62369 3.78917L5.72007 1.57827C6.3181 0.378613 7.2899 0.378613 7.8817 1.57827Z" fill="#EDC264"/>
<path d="M7.8817 1.57827L8.97809 3.78917C9.12759 4.09694 9.52628 4.39214 9.86267 4.44867L11.8499 4.78156C13.1207 4.99511 13.4197 5.92469 12.504 6.84171L10.9591 8.39938C10.6974 8.66318 10.5541 9.17194 10.6351 9.53624L11.0774 11.4645C11.4263 12.9908 10.6227 13.5812 9.28333 12.7835L7.42072 11.6718C7.08433 11.4708 6.5299 11.4708 6.18728 11.6718L4.32467 12.7835C2.99156 13.5812 2.18173 12.9845 2.53058 11.4645L2.97288 9.53624C3.05386 9.17194 2.91058 8.66318 2.64894 8.39938L1.10404 6.84171C0.194533 5.92469 0.487318 4.99511 1.75813 4.78156L3.74533 4.44867C4.07549 4.39214 4.47418 4.09694 4.62369 3.78917L5.72007 1.57827C6.3181 0.378613 7.2899 0.378613 7.8817 1.57827Z" fill="#EDC264"/>
<path d="M7.8817 1.57827L8.97809 3.78917C9.12759 4.09694 9.52628 4.39214 9.86267 4.44867L11.8499 4.78156C13.1207 4.99511 13.4197 5.92469 12.504 6.84171L10.9591 8.39938C10.6974 8.66318 10.5541 9.17194 10.6351 9.53624L11.0774 11.4645C11.4263 12.9908 10.6227 13.5812 9.28333 12.7835L7.42072 11.6718C7.08433 11.4708 6.5299 11.4708 6.18728 11.6718L4.32467 12.7835C2.99156 13.5812 2.18173 12.9845 2.53058 11.4645L2.97288 9.53624C3.05386 9.17194 2.91058 8.66318 2.64894 8.39938L1.10404 6.84171C0.194533 5.92469 0.487318 4.99511 1.75813 4.78156L3.74533 4.44867C4.07549 4.39214 4.47418 4.09694 4.62369 3.78917L5.72007 1.57827C6.3181 0.378613 7.2899 0.378613 7.8817 1.57827Z" fill="#EDC264"/>
<path d="M7.8817 1.57827L8.97809 3.78917C9.12759 4.09694 9.52628 4.39214 9.86267 4.44867L11.8499 4.78156C13.1207 4.99511 13.4197 5.92469 12.504 6.84171L10.9591 8.39938C10.6974 8.66318 10.5541 9.17194 10.6351 9.53624L11.0774 11.4645C11.4263 12.9908 10.6227 13.5812 9.28333 12.7835L7.42072 11.6718C7.08433 11.4708 6.5299 11.4708 6.18728 11.6718L4.32467 12.7835C2.99156 13.5812 2.18173 12.9845 2.53058 11.4645L2.97288 9.53624C3.05386 9.17194 2.91058 8.66318 2.64894 8.39938L1.10404 6.84171C0.194533 5.92469 0.487318 4.99511 1.75813 4.78156L3.74533 4.44867C4.07549 4.39214 4.47418 4.09694 4.62369 3.78917L5.72007 1.57827C6.3181 0.378613 7.2899 0.378613 7.8817 1.57827Z" fill="#EDC264"/>
<path d="M21.5878 1.57827L22.6841 3.78917C22.8336 4.09694 23.2323 4.39214 23.5687 4.44867L25.5559 4.78156C26.8267 4.99511 27.1258 5.92469 26.21 6.84171L24.6651 8.39938C24.4035 8.66318 24.2602 9.17194 24.3412 9.53624L24.7835 11.4645C25.1323 12.9908 24.3287 13.5812 22.9894 12.7835L21.1268 11.6718C20.7904 11.4708 20.236 11.4708 19.8933 11.6718L18.0307 12.7835C16.6976 13.5812 15.8878 12.9845 16.2366 11.4645L16.6789 9.53624C16.7599 9.17194 16.6166 8.66318 16.355 8.39938L14.8101 6.84171C13.9006 5.92469 14.1934 4.99511 15.4642 4.78156L17.4514 4.44867C17.7815 4.39214 18.1802 4.09694 18.3297 3.78917L19.4261 1.57827C20.0242 0.378613 20.996 0.378613 21.5878 1.57827Z" fill="#EDC264"/>
<path d="M21.5878 1.57827L22.6841 3.78917C22.8336 4.09694 23.2323 4.39214 23.5687 4.44867L25.5559 4.78156C26.8267 4.99511 27.1258 5.92469 26.21 6.84171L24.6651 8.39938C24.4035 8.66318 24.2602 9.17194 24.3412 9.53624L24.7835 11.4645C25.1323 12.9908 24.3287 13.5812 22.9894 12.7835L21.1268 11.6718C20.7904 11.4708 20.236 11.4708 19.8933 11.6718L18.0307 12.7835C16.6976 13.5812 15.8878 12.9845 16.2366 11.4645L16.6789 9.53624C16.7599 9.17194 16.6166 8.66318 16.355 8.39938L14.8101 6.84171C13.9006 5.92469 14.1934 4.99511 15.4642 4.78156L17.4514 4.44867C17.7815 4.39214 18.1802 4.09694 18.3297 3.78917L19.4261 1.57827C20.0242 0.378613 20.996 0.378613 21.5878 1.57827Z" fill="#EDC264"/>
<path d="M21.5878 1.57827L22.6841 3.78917C22.8336 4.09694 23.2323 4.39214 23.5687 4.44867L25.5559 4.78156C26.8267 4.99511 27.1258 5.92469 26.21 6.84171L24.6651 8.39938C24.4035 8.66318 24.2602 9.17194 24.3412 9.53624L24.7835 11.4645C25.1323 12.9908 24.3287 13.5812 22.9894 12.7835L21.1268 11.6718C20.7904 11.4708 20.236 11.4708 19.8933 11.6718L18.0307 12.7835C16.6976 13.5812 15.8878 12.9845 16.2366 11.4645L16.6789 9.53624C16.7599 9.17194 16.6166 8.66318 16.355 8.39938L14.8101 6.84171C13.9006 5.92469 14.1934 4.99511 15.4642 4.78156L17.4514 4.44867C17.7815 4.39214 18.1802 4.09694 18.3297 3.78917L19.4261 1.57827C20.0242 0.378613 20.996 0.378613 21.5878 1.57827Z" fill="#EDC264"/>
<path d="M21.5878 1.57827L22.6841 3.78917C22.8336 4.09694 23.2323 4.39214 23.5687 4.44867L25.5559 4.78156C26.8267 4.99511 27.1258 5.92469 26.21 6.84171L24.6651 8.39938C24.4035 8.66318 24.2602 9.17194 24.3412 9.53624L24.7835 11.4645C25.1323 12.9908 24.3287 13.5812 22.9894 12.7835L21.1268 11.6718C20.7904 11.4708 20.236 11.4708 19.8933 11.6718L18.0307 12.7835C16.6976 13.5812 15.8878 12.9845 16.2366 11.4645L16.6789 9.53624C16.7599 9.17194 16.6166 8.66318 16.355 8.39938L14.8101 6.84171C13.9006 5.92469 14.1934 4.99511 15.4642 4.78156L17.4514 4.44867C17.7815 4.39214 18.1802 4.09694 18.3297 3.78917L19.4261 1.57827C20.0242 0.378613 20.996 0.378613 21.5878 1.57827Z" fill="#EDC264"/>
<path d="M35.2948 1.57827L36.3912 3.78917C36.5407 4.09694 36.9394 4.39214 37.2758 4.44867L39.263 4.78156C40.5338 4.99511 40.8328 5.92469 39.9171 6.84171L38.3721 8.39938C38.1105 8.66318 37.9672 9.17194 38.0482 9.53624L38.4905 11.4645C38.8394 12.9908 38.0358 13.5812 36.6964 12.7835L34.8338 11.6718C34.4974 11.4708 33.943 11.4708 33.6004 11.6718L31.7378 12.7835C30.4047 13.5812 29.5948 12.9845 29.9437 11.4645L30.386 9.53624C30.4669 9.17194 30.3237 8.66318 30.062 8.39938L28.5171 6.84171C27.6076 5.92469 27.9004 4.99511 29.1712 4.78156L31.1584 4.44867C31.4886 4.39214 31.8873 4.09694 32.0368 3.78917L33.1332 1.57827C33.7312 0.378613 34.703 0.378613 35.2948 1.57827Z" fill="#EDC264"/>
<path d="M35.2948 1.57827L36.3912 3.78917C36.5407 4.09694 36.9394 4.39214 37.2758 4.44867L39.263 4.78156C40.5338 4.99511 40.8328 5.92469 39.9171 6.84171L38.3721 8.39938C38.1105 8.66318 37.9672 9.17194 38.0482 9.53624L38.4905 11.4645C38.8394 12.9908 38.0358 13.5812 36.6964 12.7835L34.8338 11.6718C34.4974 11.4708 33.943 11.4708 33.6004 11.6718L31.7378 12.7835C30.4047 13.5812 29.5948 12.9845 29.9437 11.4645L30.386 9.53624C30.4669 9.17194 30.3237 8.66318 30.062 8.39938L28.5171 6.84171C27.6076 5.92469 27.9004 4.99511 29.1712 4.78156L31.1584 4.44867C31.4886 4.39214 31.8873 4.09694 32.0368 3.78917L33.1332 1.57827C33.7312 0.378613 34.703 0.378613 35.2948 1.57827Z" fill="#EDC264"/>
<path d="M35.2948 1.57827L36.3912 3.78917C36.5407 4.09694 36.9394 4.39214 37.2758 4.44867L39.263 4.78156C40.5338 4.99511 40.8328 5.92469 39.9171 6.84171L38.3721 8.39938C38.1105 8.66318 37.9672 9.17194 38.0482 9.53624L38.4905 11.4645C38.8394 12.9908 38.0358 13.5812 36.6964 12.7835L34.8338 11.6718C34.4974 11.4708 33.943 11.4708 33.6004 11.6718L31.7378 12.7835C30.4047 13.5812 29.5948 12.9845 29.9437 11.4645L30.386 9.53624C30.4669 9.17194 30.3237 8.66318 30.062 8.39938L28.5171 6.84171C27.6076 5.92469 27.9004 4.99511 29.1712 4.78156L31.1584 4.44867C31.4886 4.39214 31.8873 4.09694 32.0368 3.78917L33.1332 1.57827C33.7312 0.378613 34.703 0.378613 35.2948 1.57827Z" fill="#EDC264"/>
<path d="M35.2948 1.57827L36.3912 3.78917C36.5407 4.09694 36.9394 4.39214 37.2758 4.44867L39.263 4.78156C40.5338 4.99511 40.8328 5.92469 39.9171 6.84171L38.3721 8.39938C38.1105 8.66318 37.9672 9.17194 38.0482 9.53624L38.4905 11.4645C38.8394 12.9908 38.0358 13.5812 36.6964 12.7835L34.8338 11.6718C34.4974 11.4708 33.943 11.4708 33.6004 11.6718L31.7378 12.7835C30.4047 13.5812 29.5948 12.9845 29.9437 11.4645L30.386 9.53624C30.4669 9.17194 30.3237 8.66318 30.062 8.39938L28.5171 6.84171C27.6076 5.92469 27.9004 4.99511 29.1712 4.78156L31.1584 4.44867C31.4886 4.39214 31.8873 4.09694 32.0368 3.78917L33.1332 1.57827C33.7312 0.378613 34.703 0.378613 35.2948 1.57827Z" fill="#EDC264"/>
<path d="M49.0008 1.57827L50.0972 3.78917C50.2467 4.09694 50.6454 4.39214 50.9818 4.44867L52.969 4.78156C54.2398 4.99511 54.5388 5.92469 53.6231 6.84171L52.0782 8.39938C51.8166 8.66318 51.6733 9.17194 51.7543 9.53624L52.1966 11.4645C52.5454 12.9908 51.7418 13.5812 50.4025 12.7835L48.5399 11.6718C48.2035 11.4708 47.649 11.4708 47.3064 11.6718L45.4438 12.7835C44.1107 13.5812 43.3009 12.9845 43.6497 11.4645L44.092 9.53624C44.173 9.17194 44.0297 8.66318 43.7681 8.39938L42.2232 6.84171C41.3137 5.92469 41.6065 4.99511 42.8773 4.78156L44.8645 4.44867C45.1946 4.39214 45.5933 4.09694 45.7428 3.78917L46.8392 1.57827C47.4372 0.378613 48.409 0.378613 49.0008 1.57827Z" fill="#EDC264"/>
<path d="M49.0008 1.57827L50.0972 3.78917C50.2467 4.09694 50.6454 4.39214 50.9818 4.44867L52.969 4.78156C54.2398 4.99511 54.5388 5.92469 53.6231 6.84171L52.0782 8.39938C51.8166 8.66318 51.6733 9.17194 51.7543 9.53624L52.1966 11.4645C52.5454 12.9908 51.7418 13.5812 50.4025 12.7835L48.5399 11.6718C48.2035 11.4708 47.649 11.4708 47.3064 11.6718L45.4438 12.7835C44.1107 13.5812 43.3009 12.9845 43.6497 11.4645L44.092 9.53624C44.173 9.17194 44.0297 8.66318 43.7681 8.39938L42.2232 6.84171C41.3137 5.92469 41.6065 4.99511 42.8773 4.78156L44.8645 4.44867C45.1946 4.39214 45.5933 4.09694 45.7428 3.78917L46.8392 1.57827C47.4372 0.378613 48.409 0.378613 49.0008 1.57827Z" fill="#EDC264"/>
<path d="M49.0008 1.57827L50.0972 3.78917C50.2467 4.09694 50.6454 4.39214 50.9818 4.44867L52.969 4.78156C54.2398 4.99511 54.5388 5.92469 53.6231 6.84171L52.0782 8.39938C51.8166 8.66318 51.6733 9.17194 51.7543 9.53624L52.1966 11.4645C52.5454 12.9908 51.7418 13.5812 50.4025 12.7835L48.5399 11.6718C48.2035 11.4708 47.649 11.4708 47.3064 11.6718L45.4438 12.7835C44.1107 13.5812 43.3009 12.9845 43.6497 11.4645L44.092 9.53624C44.173 9.17194 44.0297 8.66318 43.7681 8.39938L42.2232 6.84171C41.3137 5.92469 41.6065 4.99511 42.8773 4.78156L44.8645 4.44867C45.1946 4.39214 45.5933 4.09694 45.7428 3.78917L46.8392 1.57827C47.4372 0.378613 48.409 0.378613 49.0008 1.57827Z" fill="#EDC264"/>
<path d="M49.0008 1.57827L50.0972 3.78917C50.2467 4.09694 50.6454 4.39214 50.9818 4.44867L52.969 4.78156C54.2398 4.99511 54.5388 5.92469 53.6231 6.84171L52.0782 8.39938C51.8166 8.66318 51.6733 9.17194 51.7543 9.53624L52.1966 11.4645C52.5454 12.9908 51.7418 13.5812 50.4025 12.7835L48.5399 11.6718C48.2035 11.4708 47.649 11.4708 47.3064 11.6718L45.4438 12.7835C44.1107 13.5812 43.3009 12.9845 43.6497 11.4645L44.092 9.53624C44.173 9.17194 44.0297 8.66318 43.7681 8.39938L42.2232 6.84171C41.3137 5.92469 41.6065 4.99511 42.8773 4.78156L44.8645 4.44867C45.1946 4.39214 45.5933 4.09694 45.7428 3.78917L46.8392 1.57827C47.4372 0.378613 48.409 0.378613 49.0008 1.57827Z" fill="#EDC264"/>
<path d="M62.7069 1.57827L63.8033 3.78917C63.9528 4.09694 64.3515 4.39214 64.6879 4.44867L66.6751 4.78156C67.9459 4.99511 68.2449 5.92469 67.3292 6.84171L65.7843 8.39938C65.5226 8.66318 65.3793 9.17194 65.4603 9.53624L65.9026 11.4645C66.2515 12.9908 65.4479 13.5812 64.1085 12.7835L62.2459 11.6718C61.9095 11.4708 61.3551 11.4708 61.0125 11.6718L59.1499 12.7835C57.8168 13.5812 57.0069 12.9845 57.3558 11.4645L57.7981 9.53624C57.8791 9.17194 57.7358 8.66318 57.4741 8.39938L55.9292 6.84171C55.0197 5.92469 55.3125 4.99511 56.5833 4.78156L58.5705 4.44867C58.9007 4.39214 59.2994 4.09694 59.4489 3.78917L60.5453 1.57827C61.1433 0.378613 62.1151 0.378613 62.7069 1.57827Z" fill="#EDC264"/>
<path d="M62.7069 1.57827L63.8033 3.78917C63.9528 4.09694 64.3515 4.39214 64.6879 4.44867L66.6751 4.78156C67.9459 4.99511 68.2449 5.92469 67.3292 6.84171L65.7843 8.39938C65.5226 8.66318 65.3793 9.17194 65.4603 9.53624L65.9026 11.4645C66.2515 12.9908 65.4479 13.5812 64.1085 12.7835L62.2459 11.6718C61.9095 11.4708 61.3551 11.4708 61.0125 11.6718L59.1499 12.7835C57.8168 13.5812 57.0069 12.9845 57.3558 11.4645L57.7981 9.53624C57.8791 9.17194 57.7358 8.66318 57.4741 8.39938L55.9292 6.84171C55.0197 5.92469 55.3125 4.99511 56.5833 4.78156L58.5705 4.44867C58.9007 4.39214 59.2994 4.09694 59.4489 3.78917L60.5453 1.57827C61.1433 0.378613 62.1151 0.378613 62.7069 1.57827Z" fill="#EDC264"/>
<path d="M62.7069 1.57827L63.8033 3.78917C63.9528 4.09694 64.3515 4.39214 64.6879 4.44867L66.6751 4.78156C67.9459 4.99511 68.2449 5.92469 67.3292 6.84171L65.7843 8.39938C65.5226 8.66318 65.3793 9.17194 65.4603 9.53624L65.9026 11.4645C66.2515 12.9908 65.4479 13.5812 64.1085 12.7835L62.2459 11.6718C61.9095 11.4708 61.3551 11.4708 61.0125 11.6718L59.1499 12.7835C57.8168 13.5812 57.0069 12.9845 57.3558 11.4645L57.7981 9.53624C57.8791 9.17194 57.7358 8.66318 57.4741 8.39938L55.9292 6.84171C55.0197 5.92469 55.3125 4.99511 56.5833 4.78156L58.5705 4.44867C58.9007 4.39214 59.2994 4.09694 59.4489 3.78917L60.5453 1.57827C61.1433 0.378613 62.1151 0.378613 62.7069 1.57827Z" fill="#EDC264"/>
<path d="M62.7069 1.57827L63.8033 3.78917C63.9528 4.09694 64.3515 4.39214 64.6879 4.44867L66.6751 4.78156C67.9459 4.99511 68.2449 5.92469 67.3292 6.84171L65.7843 8.39938C65.5226 8.66318 65.3793 9.17194 65.4603 9.53624L65.9026 11.4645C66.2515 12.9908 65.4479 13.5812 64.1085 12.7835L62.2459 11.6718C61.9095 11.4708 61.3551 11.4708 61.0125 11.6718L59.1499 12.7835C57.8168 13.5812 57.0069 12.9845 57.3558 11.4645L57.7981 9.53624C57.8791 9.17194 57.7358 8.66318 57.4741 8.39938L55.9292 6.84171C55.0197 5.92469 55.3125 4.99511 56.5833 4.78156L58.5705 4.44867C58.9007 4.39214 59.2994 4.09694 59.4489 3.78917L60.5453 1.57827C61.1433 0.378613 62.1151 0.378613 62.7069 1.57827Z" fill="#EDC264"/>
</svg>
