<svg width="55" height="39" viewBox="0 0 55 39" fill="none" xmlns="http://www.w3.org/2000/svg">
<g clip-path="url(#clip0_1670_1623)">
<path d="M6.95508 38.5341C7.40508 36.5937 10.6127 35.9601 11.9231 35.7801C15.8975 35.1933 19.8719 36.0969 23.7527 34.8765C24.4763 34.6497 25.1963 34.3329 25.8767 34.0197C29.6711 32.0325 34.3655 28.0581 38.2931 26.9313C42.3107 25.7577 46.1051 26.3877 50.1227 25.8009C51.4331 25.6209 53.6903 25.0341 54.1871 23.0901V18.9357C53.7371 20.8761 50.9795 21.4629 49.6727 21.6465C45.6983 22.2333 41.8607 21.5997 37.8431 22.7769C33.9155 23.9073 29.2175 27.9249 25.4267 29.8653C24.7499 30.2253 24.0263 30.4989 23.3027 30.7221C19.3283 32.0325 15.4907 31.0389 11.4731 31.6257C10.1627 31.8057 7.45548 32.2593 6.95868 34.1529C6.95508 34.1529 6.95508 38.5341 6.95508 38.5341ZM49.6259 13.0677C45.6515 13.6545 41.8139 13.0209 37.7963 14.1981C33.8687 15.3249 29.1707 19.3425 25.3799 21.2865C25.2899 21.3333 25.2431 21.3765 25.1531 21.3765V25.7109C25.3799 25.6209 25.6031 25.4841 25.8299 25.3941C29.6243 23.4069 34.3187 19.4325 38.2463 18.3057C42.2639 17.1321 46.0583 17.7621 50.0759 17.1753C51.3863 16.9953 53.6435 16.4085 54.1403 14.4645V10.3137C53.6903 12.2541 50.9363 12.8877 49.6259 13.0677ZM49.6259 4.44206C45.6515 5.02886 41.8139 4.39526 37.7963 5.57246C33.8687 6.70286 29.1707 10.7205 25.3799 12.6609C25.2899 12.7077 25.2431 12.7509 25.1531 12.7509V17.0853C25.3799 16.9953 25.6031 16.8585 25.8299 16.7685C29.6243 14.7813 34.3187 10.8069 38.2463 9.68006C42.2639 8.50646 46.0583 9.13646 50.0759 8.54966C51.3863 8.36966 53.6435 7.78286 54.1403 5.83886V1.73486C53.6903 3.67526 50.9363 4.26206 49.6259 4.44206Z" fill="#AA1D37"/>
<path d="M22.8959 0.467529H2.93752C1.40392 0.467529 0.136719 1.59793 0.136719 2.99473V24.5767C0.136719 25.9771 1.40032 27.1039 2.93752 27.1039H22.8959C24.4295 27.1039 25.6967 25.9735 25.6967 24.5767V2.99833C25.6931 1.59793 24.4295 0.467529 22.8959 0.467529ZM21.7655 23.2267H16.4843V16.0483H9.34912V23.2267H4.06432V4.17193H9.34912V10.9003H16.4843V4.17193H21.7691V23.2267H21.7655Z" fill="#00539B"/>
</g>
<defs>
<clipPath id="clip0_1670_1623">
<rect width="54" height="38" fill="white" transform="translate(0.162109 0.28479)"/>
</clipPath>
</defs>
</svg>
