<svg width="32" height="32" viewBox="0 0 32 32" fill="none" xmlns="http://www.w3.org/2000/svg">
<rect x="0.767563" y="0.311508" width="30.5278" height="30.5278" rx="15.2639" stroke="#CDD5E0" stroke-width="0.623016"/>
<path d="M19.2712 17.6559C20.7969 18.5964 22.2011 18.8713 22.9924 18.2053C24.3078 17.0982 23.3984 13.8476 20.964 10.9551C18.5296 8.06268 15.482 6.61165 14.1666 7.71874C13.2809 8.46415 13.3213 10.1822 14.2717 12.2369L15.7181 15.3703L17.1698 18.4993C18.1202 20.5539 18.1605 22.272 17.2749 23.0174C15.9595 24.1245 12.9118 22.6735 10.4774 19.781C8.04306 16.8885 7.13361 13.6379 8.44902 12.5308C9.23512 11.8692 10.6394 12.1442 12.1703 13.0803" stroke="#147C84" stroke-width="1.24603" stroke-linecap="round" stroke-linejoin="round"/>
</svg>
