<svg width="25" height="25" viewBox="0 0 25 25" fill="none" xmlns="http://www.w3.org/2000/svg">
<path d="M8.14258 18.8309L11.2426 21.2309C11.6426 21.6309 12.5426 21.8309 13.1426 21.8309H16.9426C18.1426 21.8309 19.4426 20.9309 19.7426 19.7309L22.1426 12.4309C22.6426 11.0309 21.7426 9.83093 20.2426 9.83093H16.2426C15.6426 9.83093 15.1426 9.33092 15.2426 8.63092L15.7426 5.43092C15.9426 4.53092 15.3426 3.53093 14.4426 3.23093C13.6426 2.93093 12.6426 3.33093 12.2426 3.93093L8.14258 10.0309" stroke="#147C84" stroke-width="1.5" stroke-miterlimit="10"/>
<path d="M3.04199 18.8309V9.03086C3.04199 7.63086 3.64199 7.13086 5.04199 7.13086H6.04199C7.44199 7.13086 8.04199 7.63086 8.04199 9.03086V18.8309C8.04199 20.2309 7.44199 20.7309 6.04199 20.7309H5.04199C3.64199 20.7309 3.04199 20.2309 3.04199 18.8309Z" stroke="#147C84" stroke-width="1.5" stroke-linecap="round" stroke-linejoin="round"/>
</svg>
