<svg width="15" height="15" viewBox="0 0 15 15" fill="none" xmlns="http://www.w3.org/2000/svg">
<path d="M12.6349 7.71984V8.77901C12.6349 10.7415 11.5134 11.5826 9.83118 11.5826H4.22368C2.54142 11.5826 1.41992 10.7415 1.41992 8.77901V5.41471C1.41992 3.45222 2.54142 2.61115 4.22368 2.61115H5.90593C5.82493 2.84789 5.78132 3.10956 5.78132 3.38991V5.81969C5.78132 6.42401 5.9807 6.93488 6.33584 7.28999C6.69098 7.64511 7.20189 7.84449 7.80625 7.84449V8.71049C7.80625 9.02823 8.16762 9.22131 8.43554 9.04686L10.2362 7.84449H11.8561C12.1365 7.84449 12.3982 7.80083 12.6349 7.71984Z" stroke="#147C84" stroke-width="1.24603" stroke-miterlimit="10" stroke-linecap="round" stroke-linejoin="round"/>
<path d="M13.881 3.38991V5.81969C13.881 6.74798 13.4075 7.44571 12.6349 7.71984C12.3981 7.80083 12.1364 7.84449 11.8561 7.84449H10.2361L8.43547 9.04686C8.16756 9.22131 7.80618 9.02822 7.80618 8.71049V7.84449C7.20182 7.84449 6.69091 7.64511 6.33577 7.28999C5.98063 6.93487 5.78125 6.42401 5.78125 5.81969V3.38991C5.78125 3.10955 5.82486 2.84789 5.90586 2.61114C6.18001 1.8386 6.87783 1.36511 7.80618 1.36511H11.8561C13.071 1.36511 13.881 2.17503 13.881 3.38991Z" stroke="#147C84" stroke-width="1.24603" stroke-miterlimit="10" stroke-linecap="round" stroke-linejoin="round"/>
<path d="M4.78418 13.8254H9.27019" stroke="#147C84" stroke-width="1.24603" stroke-miterlimit="10" stroke-linecap="round" stroke-linejoin="round"/>
<path d="M7.02832 11.5825V13.8254" stroke="#147C84" stroke-width="1.24603" stroke-miterlimit="10" stroke-linecap="round" stroke-linejoin="round"/>
<path d="M11.6964 4.63591H11.702" stroke="#147C84" stroke-width="1.24603" stroke-linecap="round" stroke-linejoin="round"/>
<path d="M9.95228 4.63591H9.95789" stroke="#147C84" stroke-width="1.24603" stroke-linecap="round" stroke-linejoin="round"/>
<path d="M8.20716 4.63591H8.21277" stroke="#147C84" stroke-width="1.24603" stroke-linecap="round" stroke-linejoin="round"/>
</svg>
