<svg width="15" height="15" viewBox="0 0 15 15" fill="none" xmlns="http://www.w3.org/2000/svg">
<path d="M13.7025 11.539C13.7025 11.7632 13.6526 11.9938 13.5465 12.218C13.4404 12.4423 13.3032 12.6542 13.1222 12.8535C12.8165 13.19 12.4796 13.4329 12.0989 13.5887C11.7246 13.7444 11.319 13.8254 10.8822 13.8254C10.2458 13.8254 9.5657 13.6759 8.84816 13.3706C8.13062 13.0654 7.41307 12.6542 6.70177 12.1371C5.98422 11.6137 5.30411 11.0343 4.6552 10.3926C4.01253 9.74468 3.43226 9.06559 2.91438 8.35535C2.40274 7.64511 1.99093 6.93487 1.69143 6.23087C1.39194 5.52063 1.24219 4.84154 1.24219 4.1936C1.24219 3.76995 1.31706 3.36499 1.46681 2.99118C1.61656 2.61114 1.85366 2.26226 2.18435 1.95075C2.58368 1.55825 3.02045 1.36511 3.48217 1.36511C3.65688 1.36511 3.83159 1.40249 3.98758 1.47726C4.1498 1.55202 4.29331 1.66416 4.40562 1.82614L5.85319 3.86341C5.9655 4.01916 6.04662 4.16245 6.10277 4.29952C6.15893 4.43035 6.19013 4.56118 6.19013 4.67956C6.19013 4.82908 6.14645 4.9786 6.0591 5.1219C5.97798 5.26519 5.85943 5.41472 5.70968 5.56424L5.23548 6.05642C5.16684 6.12495 5.13565 6.20595 5.13565 6.30563C5.13565 6.35547 5.14189 6.39908 5.15437 6.44892C5.17308 6.49876 5.1918 6.53614 5.20428 6.57352C5.31659 6.77912 5.51002 7.04702 5.78456 7.37099C6.06534 7.69495 6.36483 8.02515 6.68929 8.35535C7.02622 8.68555 7.35068 8.99083 7.68137 9.27118C8.00583 9.54531 8.27412 9.73222 8.48627 9.84436C8.51747 9.85682 8.5549 9.87551 8.59858 9.8942C8.6485 9.91289 8.69841 9.91912 8.75457 9.91912C8.86064 9.91912 8.94175 9.88174 9.01039 9.81321L9.48459 9.34595C9.64058 9.19019 9.79033 9.07182 9.93384 8.99706C10.0773 8.90983 10.2209 8.86622 10.3768 8.86622C10.4954 8.86622 10.6202 8.89114 10.7575 8.94722C10.8947 9.00329 11.0382 9.08428 11.1942 9.19019L13.2595 10.6543C13.4217 10.7664 13.534 10.8973 13.6027 11.053C13.6651 11.2088 13.7025 11.3645 13.7025 11.539Z" stroke="#147C84" stroke-width="1.24603" stroke-miterlimit="10"/>
</svg>
