<svg width="32" height="32" viewBox="0 0 32 32" fill="none" xmlns="http://www.w3.org/2000/svg">
<rect x="0.886703" y="0.311508" width="30.5278" height="30.5278" rx="15.2639" stroke="#CDD5E0" stroke-width="0.623016"/>
<path d="M14.0961 22.4286H18.208C21.6345 22.4286 23.0052 21.0579 23.0052 17.6314V13.5195C23.0052 10.0929 21.6345 8.72223 18.208 8.72223H14.0961C10.6695 8.72223 9.29883 10.0929 9.29883 13.5195V17.6314C9.29883 21.0579 10.6695 22.4286 14.0961 22.4286Z" stroke="#147C84" stroke-width="1.24603" stroke-linecap="round" stroke-linejoin="round"/>
<path d="M19.5789 15.4658H17.7423C17.2557 15.4658 16.9268 15.0957 16.9268 14.6503V13.6291C16.9268 13.1837 17.2557 12.8136 17.7423 12.8136H18.7634C19.2089 12.8136 19.5789 13.1837 19.5789 13.6291V15.4658Z" stroke="#147C84" stroke-width="1.24603" stroke-linecap="round" stroke-linejoin="round"/>
<path d="M19.5788 15.4658C19.5788 17.3778 19.2224 17.6999 18.1465 18.3372" stroke="#147C84" stroke-width="1.24603" stroke-linecap="round" stroke-linejoin="round"/>
<path d="M15.3709 15.4658H13.5343C13.0477 15.4658 12.7188 15.0957 12.7188 14.6503V13.6291C12.7188 13.1837 13.0477 12.8136 13.5343 12.8136H14.5554C15.0009 12.8136 15.3709 13.1837 15.3709 13.6291V15.4658Z" stroke="#147C84" stroke-width="1.24603" stroke-linecap="round" stroke-linejoin="round"/>
<path d="M15.3698 15.4658C15.3698 17.3778 15.0134 17.6999 13.9375 18.3372" stroke="#147C84" stroke-width="1.24603" stroke-linecap="round" stroke-linejoin="round"/>
</svg>
