<svg width="105" height="21" viewBox="0 0 105 21" fill="none" xmlns="http://www.w3.org/2000/svg">
<path d="M10.6621 0.480957L12.9072 7.39079H20.1727L14.2948 11.6613L16.54 18.5711L10.6621 14.3006L4.78426 18.5711L7.0294 11.6613L1.15154 7.39079H8.41697L10.6621 0.480957Z" fill="#EDC264"/>
<path d="M31.6621 0.480957L33.9072 7.39079H41.1727L35.2948 11.6613L37.54 18.5711L31.6621 14.3006L25.7843 18.5711L28.0294 11.6613L22.1515 7.39079H29.417L31.6621 0.480957Z" fill="#EDC264"/>
<path d="M52.6621 0.480957L54.9072 7.39079H62.1727L56.2948 11.6613L58.54 18.5711L52.6621 14.3006L46.7843 18.5711L49.0294 11.6613L43.1515 7.39079H50.417L52.6621 0.480957Z" fill="#EDC264"/>
<path d="M73.6621 0.480957L75.9072 7.39079H83.1727L77.2948 11.6613L79.54 18.5711L73.6621 14.3006L67.7843 18.5711L70.0294 11.6613L64.1515 7.39079H71.417L73.6621 0.480957Z" fill="#EDC264"/>
<path d="M94.6621 0.480957L96.9072 7.39079H104.173L98.2948 11.6613L100.54 18.5711L94.6621 14.3006L88.7843 18.5711L91.0294 11.6613L85.1515 7.39079H92.417L94.6621 0.480957Z" fill="#EDC264"/>
</svg>
