<svg width="16" height="16" viewBox="0 0 16 16" fill="none" xmlns="http://www.w3.org/2000/svg">
<path fill-rule="evenodd" clip-rule="evenodd" d="M11.2306 0.834248C11.0821 0.596989 10.8634 0.411928 10.6048 0.304825C10.3462 0.197722 10.0607 0.173906 9.78797 0.236692L7.85223 0.68136C7.65385 0.726958 7.44771 0.726958 7.24933 0.68136L5.31359 0.236692C5.04085 0.173906 4.75532 0.197722 4.49674 0.304825C4.23817 0.411928 4.01942 0.596989 3.87094 0.834248L2.81587 2.51817C2.7082 2.69044 2.56286 2.83579 2.39061 2.94453L0.706794 3.99968C0.469959 4.14803 0.285181 4.36644 0.178108 4.62459C0.0710353 4.88274 0.0469783 5.16782 0.109277 5.44027L0.553915 7.37828C0.599346 7.57633 0.599346 7.7821 0.553915 7.98014L0.109277 9.91709C0.0467362 10.1897 0.0706721 10.475 0.177757 10.7334C0.284841 10.9917 0.469755 11.2103 0.706794 11.3588L2.39061 12.4139C2.56286 12.5216 2.7082 12.6669 2.81694 12.8392L3.87202 14.5231C4.17562 15.0087 4.75483 15.2488 5.31359 15.1207L7.24933 14.676C7.44771 14.6304 7.65385 14.6304 7.85223 14.676L9.78905 15.1207C10.0616 15.1832 10.3469 15.1593 10.6053 15.0522C10.8636 14.9451 11.0822 14.7602 11.2306 14.5231L12.2857 12.8392C12.3934 12.6669 12.5387 12.5216 12.711 12.4139L14.3958 11.3588C14.6329 11.2101 14.8177 10.9913 14.9246 10.7327C15.0315 10.4741 15.0552 10.1887 14.9923 9.91601L14.5487 7.98014C14.5031 7.78175 14.5031 7.5756 14.5487 7.37721L14.9934 5.44027C15.056 5.16778 15.0322 4.88254 14.9253 4.62418C14.8185 4.36582 14.6338 4.14717 14.3969 3.9986L12.712 2.94346C12.54 2.83559 12.3946 2.6902 12.2868 2.51817L11.2306 0.834248ZM10.6891 5.27769C10.7557 5.15523 10.7722 5.01172 10.7351 4.87735C10.698 4.74298 10.6103 4.62822 10.4904 4.55722C10.3704 4.48623 10.2276 4.46453 10.092 4.49669C9.95637 4.52885 9.83851 4.61236 9.76321 4.72966L6.94788 9.49503L5.24792 7.86709C5.19749 7.81531 5.13714 7.77421 5.07048 7.74625C5.00383 7.71829 4.93222 7.70405 4.85994 7.70436C4.78765 7.70468 4.71618 7.71955 4.64976 7.74809C4.58335 7.77662 4.52337 7.81825 4.47339 7.87047C4.42341 7.9227 4.38446 7.98445 4.35886 8.05206C4.33327 8.11966 4.32155 8.19173 4.3244 8.26396C4.32726 8.33619 4.34463 8.40711 4.37548 8.47248C4.40634 8.53785 4.45004 8.59634 4.50398 8.64445L6.6938 10.7429C6.75241 10.7989 6.82292 10.841 6.90007 10.866C6.97722 10.891 7.05902 10.8982 7.13935 10.8871C7.21968 10.876 7.29647 10.8469 7.36398 10.802C7.4315 10.7571 7.48799 10.6975 7.52925 10.6277L10.6891 5.27769Z" fill="#147C84"/>
</svg>
