<svg width="16" height="13" viewBox="0 0 16 13" fill="none" xmlns="http://www.w3.org/2000/svg">
<path d="M8.44505 11.5794H4.50763C2.53892 11.5794 1.88477 10.3363 1.88477 9.08733V4.10321C1.88477 2.23268 2.53892 1.61115 4.50763 1.61115H8.44505C10.4138 1.61115 11.0679 2.23268 11.0679 4.10321V9.08733C11.0679 10.9579 10.4075 11.5794 8.44505 11.5794Z" stroke="#147C84" stroke-width="1.86905" stroke-linecap="round" stroke-linejoin="round"/>
<path d="M12.8003 9.61423L11.0684 8.45995V4.72482L12.8003 3.57054C13.6476 3.00819 14.3454 3.35152 14.3454 4.34006V8.85063C14.3454 9.83917 13.6476 10.1825 12.8003 9.61423Z" stroke="#147C84" stroke-width="1.86905" stroke-linecap="round" stroke-linejoin="round"/>
<path d="M7.80463 6.00342C8.32075 6.00342 8.73914 5.60589 8.73914 5.11551C8.73914 4.62513 8.32075 4.2276 7.80463 4.2276C7.28851 4.2276 6.87012 4.62513 6.87012 5.11551C6.87012 5.60589 7.28851 6.00342 7.80463 6.00342Z" stroke="#147C84" stroke-width="1.86905" stroke-linecap="round" stroke-linejoin="round"/>
</svg>
