<svg width="19" height="17" viewBox="0 0 19 17" fill="none" xmlns="http://www.w3.org/2000/svg">
<path d="M13.2139 10.124C13.3742 9.67744 13.4557 9.20439 13.4543 8.72766C13.4543 7.66911 13.0503 6.65391 12.3312 5.90541C11.612 5.1569 10.6367 4.73639 9.6197 4.73639C9.16732 4.73706 8.71869 4.82179 8.29492 4.98657L9.19488 5.95239C9.33174 5.9301 9.47 5.91843 9.60852 5.91748C10.3276 5.91592 11.0181 6.21057 11.5292 6.73708C12.0403 7.2636 12.3304 7.97921 12.3363 8.72766C12.3354 8.87184 12.3242 9.01576 12.3028 9.15821L13.2139 10.124Z" fill="#222222" fill-opacity="0.5"/>
<path d="M18.3009 8.4549C16.4171 4.83017 13.1136 2.63672 9.45786 2.63672C8.4625 2.63895 7.47381 2.80589 6.52881 3.13126L7.42877 4.07381C8.09165 3.89562 8.77323 3.80376 9.45786 3.80035C12.6049 3.80035 15.4669 5.62726 17.1718 8.70508C16.5458 9.84655 15.7168 10.8536 14.729 11.6724L15.5228 12.4985C16.6668 11.5385 17.6167 10.352 18.3177 9.00763L18.463 8.72835L18.3009 8.4549Z" fill="#222222" fill-opacity="0.5"/>
<path d="M1.85475 1.61691L4.3478 4.21182C2.77166 5.26748 1.48368 6.72832 0.608225 8.45327L0.462891 8.72673L0.608225 9.006C2.49198 12.6307 5.79555 14.8242 9.45127 14.8242C10.8782 14.8245 12.2867 14.4883 13.571 13.8409L16.3658 16.75L17.3441 15.8773L2.8106 0.75L1.85475 1.61691ZM7.30479 7.28964L11.022 11.1587C10.6021 11.4296 10.1185 11.5746 9.62456 11.5776C9.26565 11.5776 8.91029 11.5038 8.57892 11.3603C8.24754 11.2168 7.9467 11.0065 7.6937 10.7416C7.4407 10.4766 7.24053 10.1622 7.10471 9.8164C6.9689 9.47062 6.90012 9.10029 6.90233 8.72673C6.90835 8.2185 7.0475 7.72162 7.30479 7.28964ZM6.49428 6.446C5.97131 7.21365 5.7262 8.14915 5.80232 9.08687C5.87845 10.0246 6.27091 10.904 6.91022 11.5694C7.54952 12.2349 8.39442 12.6433 9.29533 12.7226C10.1962 12.8018 11.095 12.5467 11.8325 12.0024L12.7269 12.9333C11.6916 13.3941 10.5773 13.6316 9.45127 13.6315C6.30422 13.6315 3.44225 11.8045 1.73736 8.72673C2.55575 7.21894 3.73404 5.95643 5.15831 5.06127L6.49428 6.446Z" fill="#222222" fill-opacity="0.5"/>
</svg>
