<svg width="23" height="23" viewBox="0 0 23 23" fill="none" xmlns="http://www.w3.org/2000/svg">
<path d="M22.2861 9.04566H21.4V9.00001H11.5V13.4H17.7167C16.8097 15.9614 14.3727 17.8 11.5 17.8C7.85515 17.8 4.9 14.8449 4.9 11.2C4.9 7.55516 7.85515 4.60001 11.5 4.60001C13.1825 4.60001 14.7131 5.23471 15.8786 6.27146L18.9899 3.16011C17.0253 1.32916 14.3974 0.200012 11.5 0.200012C5.42525 0.200012 0.5 5.12526 0.5 11.2C0.5 17.2748 5.42525 22.2 11.5 22.2C17.5748 22.2 22.5 17.2748 22.5 11.2C22.5 10.4625 22.4241 9.74251 22.2861 9.04566Z" fill="#FFC107"/>
<path d="M1.76807 6.08006L5.38212 8.73051C6.36002 6.30941 8.72832 4.60001 11.4998 4.60001C13.1822 4.60001 14.7129 5.23471 15.8783 6.27146L18.9897 3.16011C17.0251 1.32916 14.3972 0.200012 11.4998 0.200012C7.27467 0.200012 3.61057 2.58536 1.76807 6.08006Z" fill="#FF3D00"/>
<path d="M11.4998 22.2C14.3411 22.2 16.9228 21.1126 18.8747 19.3444L15.4702 16.4635C14.3658 17.3 12.993 17.8 11.4998 17.8C8.63868 17.8 6.20933 15.9756 5.29413 13.4297L1.70703 16.1934C3.52753 19.7558 7.22463 22.2 11.4998 22.2Z" fill="#4CAF50"/>
<path d="M22.286 9.04565H21.4V9H11.5V13.4H17.7167C17.2811 14.6304 16.4896 15.6913 15.4688 16.464C15.4693 16.4635 15.4699 16.4635 15.4704 16.463L18.875 19.3439C18.6341 19.5627 22.5 16.7 22.5 11.2C22.5 10.4625 22.4241 9.7425 22.286 9.04565Z" fill="#1976D2"/>
</svg>
