<svg width="39" height="29" viewBox="0 0 39 29" fill="none" xmlns="http://www.w3.org/2000/svg">
<path d="M23.0948 4.20453C19.7163 7.54078 20.3304 15.2354 20.3304 15.2354L31.561 6.11655L20.3304 18.4711C20.3304 18.4711 33.4786 18.2622 37.09 13.1763C40.0917 8.94891 37.09 0.527588 37.09 0.527588C37.09 0.527588 26.8295 0.516658 23.0948 4.20453Z" fill="#147C84"/>
<path d="M16.0109 7.14609C17.5659 10.2347 17.5659 18.4711 17.5659 18.4711C17.5659 18.4711 3.74355 18.8815 1.15186 15.2354C-1.43983 11.5892 1.15186 2.4396 1.15186 2.4396C1.15186 2.4396 14.4559 4.05746 16.0109 7.14609Z" fill="#147C84"/>
<path d="M20.3304 26.5604C18.8041 24.7356 20.3304 20.8243 20.3304 20.8243C20.3304 20.8243 25.1678 21.245 26.5504 23.1776C27.8139 24.9436 26.5504 28.4724 26.5504 28.4724C26.5504 28.4724 21.8283 28.3513 20.3304 26.5604Z" fill="#147C84"/>
<path d="M16.0109 26.5604V20.8243L1.15186 18.4711C1.15186 18.4711 2.28267 24.7346 5.81691 26.5604C9.22021 28.3185 16.0109 26.5604 16.0109 26.5604Z" fill="#147C84"/>
</svg>
